HIERARCHY
ROOT hip
{
	OFFSET 0.000000 0.000000 0.000000 
	CHANNELS 6 Xposition Yposition Zposition Xrotation Zrotation Yrotation
	JOINT abdomen
	{
		OFFSET 0.000000 3.402643 0.000000 
		CHANNELS 3 Xrotation Zrotation Yrotation
		JOINT chest
		{
			OFFSET 0.000000 8.438565 -0.680529 
			CHANNELS 3 Xrotation Zrotation Yrotation
			JOINT neck
			{
				OFFSET 0.000000 10.207942 -0.272212 
				CHANNELS 3 Xrotation Zrotation Yrotation
				JOINT head
				{
					OFFSET 0.000000 3.130431 0.000000 
					CHANNELS 3 Xrotation Zrotation Yrotation
					End Site
					{
						OFFSET 0.000000 3.130435 0.000000 
					}
				}
			}
			JOINT lCollar
			{
				OFFSET 3.470700 6.669187 -0.816635 
				CHANNELS 3 Yrotation Zrotation Xrotation
				JOINT lShldr
				{
					OFFSET 3.198488 0.000000 0.000000 
					CHANNELS 3 Zrotation Yrotation Xrotation
					JOINT lForeArm
					{
						OFFSET 10.139888 0.000000 0.000000 
						CHANNELS 3 Yrotation Zrotation Xrotation
						JOINT lHand
						{
							OFFSET 8.370511 0.000000 0.000000 
							CHANNELS 3 Zrotation Yrotation Xrotation
							End Site
							{
								OFFSET 4.083176 0.000000 0.000000 
							}
						}
					}
				}
			}
			JOINT rCollar
			{
				OFFSET -3.470700 6.669187 -0.816635 
				CHANNELS 3 Yrotation Zrotation Xrotation
				JOINT rShldr
				{
					OFFSET -3.198488 0.000000 0.000000 
					CHANNELS 3 Zrotation Yrotation Xrotation
					JOINT rForeArm
					{
						OFFSET -10.139888 0.000000 0.000000 
						CHANNELS 3 Yrotation Zrotation Xrotation
						JOINT rHand
						{
							OFFSET -8.370511 0.000000 0.000000 
							CHANNELS 3 Zrotation Yrotation Xrotation
							End Site
							{
								OFFSET -4.083176 0.000000 0.000000 
							}
						}
					}
				}
			}
		}
	}
	JOINT lThigh
	{
		OFFSET 5.308129 -1.633274 1.361059 
		CHANNELS 3 Xrotation Zrotation Yrotation
		JOINT lShin
		{
			OFFSET -2.041588 -20.007561 0.000000 
			CHANNELS 3 Xrotation Zrotation Yrotation
			JOINT lFoot
			{
				OFFSET 0.000000 -19.190928 -1.224953 
				CHANNELS 3 Xrotation Yrotation Zrotation
				End Site
				{
					OFFSET 0.000000 -2.449906 4.627600 
				}
			}
		}
	}
	JOINT rThigh
	{
		OFFSET -5.308129 -1.633274 1.361059 
		CHANNELS 3 Xrotation Zrotation Yrotation
		JOINT rShin
		{
			OFFSET 2.041588 -20.007561 0.000000 
			CHANNELS 3 Xrotation Zrotation Yrotation
			JOINT rFoot
			{
				OFFSET 0.000000 -19.190928 -1.224953 
				CHANNELS 3 Xrotation Yrotation Zrotation
				End Site
				{
					OFFSET 0.000000 -2.449906 4.627600 
				}
			}
		}
	}
}
MOTION
Frames: 8
Frame Time: 0.033333
2.300499 40.449963 2.300499 -11.686131 23.272346 80.176193 16.421925 7.185263 -33.159389 6.972255 5.092300 5.885574 -8.583806 5.435327 -0.828121 23.713375 -28.590088 -58.855419 2.000000 -2.000000 0.000000 -109.002312 -107.325935 37.115677 -56.667553 -0.550636 8.636757 -61.406002 54.916592 -95.273689 -2.000000 2.000000 0.000000 34.463684 18.094353 -39.509521 102.501350 0.556550 9.107209 -12.588639 -69.979874 -6.163131 -44.735764 4.021860 0.347171 38.749317 -0.797174 -2.963077 36.877022 -1.227003 -1.820648 -60.737389 -4.130610 -0.362439 38.751308 0.784912 2.910650 41.868965 1.345431 1.655961 
2.300499 40.550224 2.300499 -11.686131 23.272346 80.176193 17.954706 8.041436 -29.784391 6.972255 5.092300 5.885574 -8.583806 5.435327 -0.828121 23.085329 -28.746578 -62.125378 2.000000 -2.000000 0.000000 -101.015930 -107.576828 27.863337 -56.672237 -0.551774 8.645155 -59.427017 54.483219 -93.439064 -2.000000 2.000000 0.000000 30.931383 17.541616 -44.015827 100.182655 0.555570 9.084166 -8.527362 -59.180740 -9.769253 -47.032673 4.022563 0.337627 41.823879 -0.646941 -3.111743 36.076500 -1.198489 -1.832558 -61.040821 -4.130363 -0.367152 38.819637 0.784780 2.913996 42.093456 1.354488 1.652052 
2.300499 40.810631 2.300499 -11.686131 23.272346 80.176193 20.921591 9.381090 -23.434580 6.972255 5.092300 5.885574 -8.583806 5.435327 -0.828121 21.944944 -29.116737 -68.213089 2.000000 -2.000000 0.000000 -87.601517 -108.999222 12.169886 -56.800026 -0.555736 8.638599 -56.090706 53.555092 -90.311668 -2.000000 2.000000 0.000000 9.632101 22.800152 -59.518173 69.939774 0.508160 8.773624 -2.035429 -49.799519 -14.850605 -49.466282 4.022790 0.326965 45.892193 -0.432908 -3.306172 34.426758 -1.134961 -1.874113 -60.933403 -4.130670 -0.362025 38.888107 0.775007 2.914152 41.927383 1.352216 1.645792 
2.300499 40.960896 2.300499 -11.686131 23.272346 80.176193 22.575649 9.969619 -19.986282 6.972255 5.092300 5.885574 -8.583806 5.435327 -0.828121 21.345795 -29.359257 -71.489258 2.000000 -2.000000 0.000000 -81.508087 -110.182785 4.856914 -56.927559 -0.553909 8.640086 -54.486416 53.019058 -88.706505 -2.000000 2.000000 0.000000 -5.700136 23.525194 -69.593132 49.005367 0.581710 8.562533 1.261449 -46.077965 -17.232796 -51.583515 4.032339 0.329086 50.007973 -0.198741 -3.481805 32.424229 -1.085111 -1.911236 -60.541382 -4.130549 -0.362871 38.965469 0.775086 2.937428 41.449127 1.330615 1.672343 
2.300499 40.449963 2.300499 -11.686131 23.272346 80.176193 16.421925 7.185263 -33.159389 6.972255 5.092300 5.885574 -8.583806 5.435327 -0.828121 23.713375 -28.590088 -58.855419 2.000000 -2.000000 0.000000 -109.002312 -107.325935 37.115677 -56.667553 -0.550636 8.636757 -61.406002 54.916592 -95.273689 -2.000000 2.000000 0.000000 34.463684 18.094353 -39.509521 102.501350 0.556550 9.107209 -12.588639 -69.979874 -6.163131 -52.868580 4.022718 0.332725 53.186756 -0.015805 -3.605074 30.530697 -1.008705 -1.942611 -59.953323 -4.130358 -0.364277 39.014633 0.775122 2.930172 40.814358 1.312732 1.683111 
2.300499 40.530098 2.300499 -11.686131 23.272346 80.176193 17.504757 7.808413 -30.752295 6.972255 5.092300 5.885574 -8.583806 5.435327 -0.828121 23.269106 -28.697552 -61.192425 2.000000 -2.000000 0.000000 -103.241531 -107.464859 30.444868 -56.667553 -0.550636 8.636757 -59.985767 54.610455 -93.977135 -2.000000 2.000000 0.000000 27.786642 20.848467 -44.848862 92.599854 0.528910 9.012067 -8.582652 -57.176697 -9.723294 -52.849041 4.022769 0.331838 54.444603 0.054207 -3.649016 29.231491 -0.975767 -1.958339 -59.258522 -4.130466 -0.351358 39.054089 0.771468 2.921204 40.091534 1.293543 1.713462 
2.300499 40.770496 2.300499 -11.686131 23.272346 80.176193 19.995735 9.005732 -25.396208 6.972255 5.092300 5.885574 -8.583806 5.435327 -0.828121 22.288532 -28.994890 -66.339554 2.000000 -2.000000 0.000000 -91.433800 -108.453041 16.698557 -56.721455 -0.551840 8.640773 -57.067329 53.863689 -91.219627 -2.000000 2.000000 0.000000 12.148230 23.952522 -57.003468 71.792702 0.509955 8.800397 -3.415902 -51.121655 -13.806331 -47.337303 4.022492 0.331544 48.565060 -0.296544 -3.416930 29.622301 -0.984461 -1.953557 -57.759148 -4.130754 -0.350072 38.937019 0.791005 2.912189 38.714962 1.246308 1.735582 
2.300499 40.960896 2.300499 -11.686131 23.272346 80.176193 22.575649 9.969619 -19.986282 6.972255 5.092300 5.885574 -8.583806 5.435327 -0.828121 21.345795 -29.359257 -71.489258 2.000000 -2.000000 0.000000 -81.508087 -110.182785 4.856914 -56.927559 -0.553909 8.640086 -54.486416 53.019058 -88.706505 -2.000000 2.000000 0.000000 -5.700136 23.525194 -69.593132 49.005367 0.581710 8.562533 1.261449 -46.077965 -17.232796 -42.017544 4.022708 0.330012 38.202702 -0.841895 -2.931062 34.661198 -1.140604 -1.870742 -58.738754 -4.130529 -0.356565 38.751308 0.784906 2.910649 39.886604 1.285608 1.707640 
